<svg width="512" height="512" viewBox="0 0 512 512" fill="none" xmlns="http://www.w3.org/2000/svg">
<g clip-path="url(#clip0)">
<path d="M253.7 0.811493C323.315 1.23771 382.701 24.1112 432.284 70.8526C481.724 117.594 508.718 175.559 511.986 243.611C515.395 316.352 492.096 380 441.66 432.708C392.077 484.564 330.845 511.273 258.957 511.984C192.041 512.694 133.366 490.247 84.2092 444.926C26.2441 391.365 -1.60183 324.308 1.38166 245.458C3.79687 179.395 29.2276 122.567 75.969 75.9671C125.268 26.6684 185.506 2.09013 253.7 0.811493Z" fill="#0087CB"/>
<path d="M178.118 290.921C164.195 286.659 150.13 282.255 136.207 277.992C129.388 275.861 122.569 273.73 115.749 271.599C113.192 270.747 110.777 269.894 108.646 268.332C104.668 265.348 104.383 261.654 107.793 257.96C110.066 255.403 112.908 253.698 116.033 252.42C124.273 249.152 132.514 245.884 140.754 242.617C197.582 220.738 254.411 198.717 311.381 176.838C329.424 169.876 347.325 162.915 365.368 155.953C367.783 154.959 370.341 154.39 373.04 154.817C378.439 155.669 382.559 160.073 383.127 165.756C383.411 168.882 383.269 172.007 382.701 175.133C375.739 207.809 368.778 240.628 361.817 273.304C356.134 300.298 350.309 327.291 344.626 354.427C343.347 360.536 342.069 366.645 340.79 372.754C340.222 375.737 339.369 378.579 337.949 381.278C335.107 386.535 330.561 388.524 324.736 387.387C321.184 386.677 318.059 385.114 315.217 382.983C295.611 368.492 276.005 353.858 256.258 339.367C255.405 338.657 254.411 338.089 253.558 337.52C250.149 336.526 247.733 333.968 245.034 331.979C235.657 325.16 226.281 318.056 216.904 311.237C216.194 310.669 215.483 310.101 214.915 309.39C214.062 307.969 214.915 307.117 215.767 306.265C228.554 294.899 241.198 283.249 253.984 271.883C263.219 263.501 272.596 255.119 281.83 246.737C291.065 238.355 300.3 230.114 309.534 221.874C316.78 215.339 324.026 208.946 331.129 202.411C331.697 201.842 332.266 201.274 332.834 200.706C333.26 200.137 333.828 199.569 333.544 198.859C333.26 198.006 332.408 198.006 331.697 198.006C329.14 197.722 327.009 198.717 324.878 199.995C317.064 204.684 309.534 209.656 301.862 214.487C278.563 229.12 255.121 243.895 231.821 258.529C215.767 268.616 199.713 278.703 183.659 288.932C181.812 289.926 180.534 291.773 178.118 290.921Z" fill="#FCFDFE"/>
<path d="M178.119 290.921C181.955 289.358 185.223 286.801 188.774 284.67C199.004 278.277 209.233 271.883 219.462 265.348C226.707 260.802 233.811 256.113 241.057 251.567C252.991 244.037 265.067 236.508 277.143 228.978C285.525 223.721 293.907 218.323 302.431 212.924C309.819 208.235 317.207 203.547 324.595 198.859C327.01 197.438 329.425 196.586 332.408 196.87C333.261 197.012 334.113 197.012 334.397 197.864C334.824 198.717 334.54 199.569 333.829 200.422C332.124 202.126 330.562 203.973 328.573 205.536C325.021 208.378 321.895 211.645 318.486 214.629C312.945 219.317 307.83 224.432 302.289 229.12C300.016 231.109 297.885 233.24 295.612 235.229C292.344 237.928 289.219 241.196 286.093 244.037C281.263 248.442 276.29 252.704 271.46 256.966C269.329 258.955 267.056 260.944 265.067 262.933C259.81 267.905 254.269 272.594 249.013 277.566C242.619 283.391 236.084 289.074 229.833 295.041C225.287 299.303 220.456 303.281 215.768 307.401C215.058 307.969 215.058 308.538 215.484 309.248C214.489 325.302 213.353 341.356 212.358 357.41C212.074 361.672 211.506 365.792 211.648 370.055C211.648 371.333 211.648 372.47 210.653 373.464C209.801 373.748 208.807 373.748 207.954 373.748C205.397 373.606 203.55 372.328 202.84 369.912C202.129 367.355 201.277 364.94 200.566 362.383C193.605 339.509 186.643 316.494 179.682 293.62C178.972 292.626 178.545 291.773 178.119 290.921Z" fill="#CCD9E9"/>
<path d="M210.227 373.322C209.8 367.781 210.795 362.241 210.937 356.842C211.221 350.875 211.789 344.908 212.073 338.941C212.5 332.832 212.926 326.723 213.352 320.756C213.494 317.63 213.778 314.505 213.778 311.521C213.778 310.527 214.062 309.816 215.057 309.248C226.565 317.772 238.072 326.155 249.438 334.679C250.717 335.673 252.138 336.384 253.132 337.662C242.477 348.034 231.679 358.405 221.024 368.776C218.183 371.617 214.773 373.89 210.227 373.322Z" fill="#B1C8DB"/>
</g>
<defs>
<clipPath id="clip0">
<rect width="512" height="512" fill="white"/>
</clipPath>
</defs>
</svg>
